<?xml version="1.0" encoding="utf-8"?>
<!-- Generator: Adobe Illustrator 23.0.4, SVG Export Plug-In . SVG Version: 6.00 Build 0)  -->
<svg version="1.1" id="bottom-frame" xmlns="http://www.w3.org/2000/svg" xmlns:xlink="http://www.w3.org/1999/xlink" x="0px"
	 y="0px" viewBox="0 0 279.1 346.6" style="enable-background:new 0 0 279.1 346.6;" xml:space="preserve">
<style type="text/css">
	.frame-color{fill:#7C1516;}
	.background-color{fill:#ffffff;}
	.text-color{fill:#FFFFFF;}
</style>

<svg xmlns="http://www.w3.org/2000/svg" xmlns:xlink="http://www.w3.org/1999/xlink" version="1.1" width="259.9" height="259.9" viewBox="0 0 2000 2000" x="9.7" y="9.6" shape-rendering="crispEdges"><defs/><rect x="0" y="0" width="2000" height="2000" fill="#ffffff"/><svg viewBox="0 0 4 4" x="776" y="200" width="64" height="64" shape-rendering="auto"><circle fill="#7c1516" cx="2" cy="2" r="1.75"/></svg><svg viewBox="0 0 4 4" x="1096" y="200" width="64" height="64" shape-rendering="auto"><circle fill="#7c1516" cx="2" cy="2" r="1.75"/></svg><svg viewBox="0 0 4 4" x="1224" y="200" width="64" height="64" shape-rendering="auto"><circle fill="#7c1516" cx="2" cy="2" r="1.75"/></svg><svg viewBox="0 0 4 4" x="712" y="264" width="64" height="64" shape-rendering="auto"><path fill="#7c1516" d="M2,.25a1.75,1.75,0,0,0,0,3.5H4V.25Z"/></svg><svg viewBox="0 0 4 4" x="776" y="264" width="64" height="64" shape-rendering="auto"><path fill="#7c1516" d="M2,3.75A1.75,1.75,0,0,0,2,.25H0v3.5Z"/></svg><svg viewBox="0 0 4 4" x="904" y="264" width="64" height="64" shape-rendering="auto"><path fill="#7c1516" d="M2,.25a1.75,1.75,0,0,0,0,3.5H4V.25Z"/></svg><svg viewBox="0 0 4 4" x="968" y="264" width="64" height="64" shape-rendering="auto"><rect fill="#7c1516" y="0.25" width="4" height="3.5"/></svg><svg viewBox="0 0 4 4" x="1032" y="264" width="64" height="64" shape-rendering="auto"><rect fill="#7c1516" y="0.25" width="4" height="3.5"/></svg><svg viewBox="0 0 4 4" x="1096" y="264" width="64" height="64" shape-rendering="auto"><path fill="#7c1516" d="M2,3.75A1.75,1.75,0,0,0,2,.25H0v3.5Z"/></svg><svg viewBox="0 0 4 4" x="776" y="328" width="64" height="64" shape-rendering="auto"><path fill="#7c1516" d="M2,.25a1.75,1.75,0,0,0,0,3.5H4V.25Z"/></svg><svg viewBox="0 0 4 4" x="840" y="328" width="64" height="64" shape-rendering="auto"><rect fill="#7c1516" y="0.25" width="4" height="3.5"/></svg><svg viewBox="0 0 4 4" x="904" y="328" width="64" height="64" shape-rendering="auto"><path fill="#7c1516" d="M2,3.75A1.75,1.75,0,0,0,2,.25H0v3.5Z"/></svg><svg viewBox="0 0 4 4" x="712" y="392" width="64" height="64" shape-rendering="auto"><path fill="#7c1516" d="M2,.25a1.75,1.75,0,0,0,0,3.5H4V.25Z"/></svg><svg viewBox="0 0 4 4" x="776" y="392" width="64" height="64" shape-rendering="auto"><path fill="#7c1516" d="M2,3.75A1.75,1.75,0,0,0,2,.25H0v3.5Z"/></svg><svg viewBox="0 0 4 4" x="904" y="392" width="64" height="64" shape-rendering="auto"><circle fill="#7c1516" cx="2" cy="2" r="1.75"/></svg><svg viewBox="0 0 4 4" x="1032" y="392" width="64" height="64" shape-rendering="auto"><circle fill="#7c1516" cx="2" cy="2" r="1.75"/></svg><svg viewBox="0 0 4 4" x="1160" y="392" width="64" height="64" shape-rendering="auto"><path fill="#7c1516" d="M2,.25a1.75,1.75,0,0,0,0,3.5H4V.25Z"/></svg><svg viewBox="0 0 4 4" x="1224" y="392" width="64" height="64" shape-rendering="auto"><path fill="#7c1516" d="M2,3.75A1.75,1.75,0,0,0,2,.25H0v3.5Z"/></svg><svg viewBox="0 0 4 4" x="840" y="456" width="64" height="64" shape-rendering="auto"><circle fill="#7c1516" cx="2" cy="2" r="1.75"/></svg><svg viewBox="0 0 4 4" x="968" y="456" width="64" height="64" shape-rendering="auto"><circle fill="#7c1516" cx="2" cy="2" r="1.75"/></svg><svg viewBox="0 0 4 4" x="1160" y="456" width="64" height="64" shape-rendering="auto"><path fill="#7c1516" d="M2,.25a1.75,1.75,0,0,0,0,3.5H4V.25Z"/></svg><svg viewBox="0 0 4 4" x="1224" y="456" width="64" height="64" shape-rendering="auto"><path fill="#7c1516" d="M2,3.75A1.75,1.75,0,0,0,2,.25H0v3.5Z"/></svg><svg viewBox="0 0 4 4" x="712" y="520" width="64" height="64" shape-rendering="auto"><circle fill="#7c1516" cx="2" cy="2" r="1.75"/></svg><svg viewBox="0 0 4 4" x="840" y="520" width="64" height="64" shape-rendering="auto"><circle fill="#7c1516" cx="2" cy="2" r="1.75"/></svg><svg viewBox="0 0 4 4" x="1032" y="520" width="64" height="64" shape-rendering="auto"><path fill="#7c1516" d="M2,.25a1.75,1.75,0,0,0,0,3.5H4V.25Z"/></svg><svg viewBox="0 0 4 4" x="1096" y="520" width="64" height="64" shape-rendering="auto"><rect fill="#7c1516" y="0.25" width="4" height="3.5"/></svg><svg viewBox="0 0 4 4" x="1160" y="520" width="64" height="64" shape-rendering="auto"><path fill="#7c1516" d="M2,3.75A1.75,1.75,0,0,0,2,.25H0v3.5Z"/></svg><svg viewBox="0 0 4 4" x="712" y="584" width="64" height="64" shape-rendering="auto"><circle fill="#7c1516" cx="2" cy="2" r="1.75"/></svg><svg viewBox="0 0 4 4" x="840" y="584" width="64" height="64" shape-rendering="auto"><circle fill="#7c1516" cx="2" cy="2" r="1.75"/></svg><svg viewBox="0 0 4 4" x="968" y="584" width="64" height="64" shape-rendering="auto"><circle fill="#7c1516" cx="2" cy="2" r="1.75"/></svg><svg viewBox="0 0 4 4" x="1096" y="584" width="64" height="64" shape-rendering="auto"><circle fill="#7c1516" cx="2" cy="2" r="1.75"/></svg><svg viewBox="0 0 4 4" x="1224" y="584" width="64" height="64" shape-rendering="auto"><circle fill="#7c1516" cx="2" cy="2" r="1.75"/></svg><svg viewBox="0 0 4 4" x="968" y="648" width="64" height="64" shape-rendering="auto"><circle fill="#7c1516" cx="2" cy="2" r="1.75"/></svg><svg viewBox="0 0 4 4" x="1224" y="648" width="64" height="64" shape-rendering="auto"><circle fill="#7c1516" cx="2" cy="2" r="1.75"/></svg><svg viewBox="0 0 4 4" x="200" y="712" width="64" height="64" shape-rendering="auto"><path fill="#7c1516" d="M2,.25a1.75,1.75,0,0,0,0,3.5H4V.25Z"/></svg><svg viewBox="0 0 4 4" x="264" y="712" width="64" height="64" shape-rendering="auto"><rect fill="#7c1516" y="0.25" width="4" height="3.5"/></svg><svg viewBox="0 0 4 4" x="328" y="712" width="64" height="64" shape-rendering="auto"><rect fill="#7c1516" y="0.25" width="4" height="3.5"/></svg><svg viewBox="0 0 4 4" x="392" y="712" width="64" height="64" shape-rendering="auto"><rect fill="#7c1516" y="0.25" width="4" height="3.5"/></svg><svg viewBox="0 0 4 4" x="456" y="712" width="64" height="64" shape-rendering="auto"><path fill="#7c1516" d="M2,3.75A1.75,1.75,0,0,0,2,.25H0v3.5Z"/></svg><svg viewBox="0 0 4 4" x="584" y="712" width="64" height="64" shape-rendering="auto"><path fill="#7c1516" d="M2,.25a1.75,1.75,0,0,0,0,3.5H4V.25Z"/></svg><svg viewBox="0 0 4 4" x="648" y="712" width="64" height="64" shape-rendering="auto"><rect fill="#7c1516" y="0.25" width="4" height="3.5"/></svg><svg viewBox="0 0 4 4" x="712" y="712" width="64" height="64" shape-rendering="auto"><rect fill="#7c1516" y="0.25" width="4" height="3.5"/></svg><svg viewBox="0 0 4 4" x="776" y="712" width="64" height="64" shape-rendering="auto"><rect fill="#7c1516" y="0.25" width="4" height="3.5"/></svg><svg viewBox="0 0 4 4" x="840" y="712" width="64" height="64" shape-rendering="auto"><path fill="#7c1516" d="M2,3.75A1.75,1.75,0,0,0,2,.25H0v3.5Z"/></svg><svg viewBox="0 0 4 4" x="968" y="712" width="64" height="64" shape-rendering="auto"><path fill="#7c1516" d="M2,.25a1.75,1.75,0,0,0,0,3.5H4V.25Z"/></svg><svg viewBox="0 0 4 4" x="1032" y="712" width="64" height="64" shape-rendering="auto"><rect fill="#7c1516" y="0.25" width="4" height="3.5"/></svg><svg viewBox="0 0 4 4" x="1096" y="712" width="64" height="64" shape-rendering="auto"><rect fill="#7c1516" y="0.25" width="4" height="3.5"/></svg><svg viewBox="0 0 4 4" x="1160" y="712" width="64" height="64" shape-rendering="auto"><path fill="#7c1516" d="M2,3.75A1.75,1.75,0,0,0,2,.25H0v3.5Z"/></svg><svg viewBox="0 0 4 4" x="1288" y="712" width="64" height="64" shape-rendering="auto"><circle fill="#7c1516" cx="2" cy="2" r="1.75"/></svg><svg viewBox="0 0 4 4" x="1416" y="712" width="64" height="64" shape-rendering="auto"><circle fill="#7c1516" cx="2" cy="2" r="1.75"/></svg><svg viewBox="0 0 4 4" x="1544" y="712" width="64" height="64" shape-rendering="auto"><circle fill="#7c1516" cx="2" cy="2" r="1.75"/></svg><svg viewBox="0 0 4 4" x="1672" y="712" width="64" height="64" shape-rendering="auto"><circle fill="#7c1516" cx="2" cy="2" r="1.75"/></svg><svg viewBox="0 0 4 4" x="264" y="776" width="64" height="64" shape-rendering="auto"><path fill="#7c1516" d="M2,.25a1.75,1.75,0,0,0,0,3.5H4V.25Z"/></svg><svg viewBox="0 0 4 4" x="328" y="776" width="64" height="64" shape-rendering="auto"><path fill="#7c1516" d="M2,3.75A1.75,1.75,0,0,0,2,.25H0v3.5Z"/></svg><svg viewBox="0 0 4 4" x="648" y="776" width="64" height="64" shape-rendering="auto"><circle fill="#7c1516" cx="2" cy="2" r="1.75"/></svg><svg viewBox="0 0 4 4" x="776" y="776" width="64" height="64" shape-rendering="auto"><circle fill="#7c1516" cx="2" cy="2" r="1.75"/></svg><svg viewBox="0 0 4 4" x="1160" y="776" width="64" height="64" shape-rendering="auto"><path fill="#7c1516" d="M2,.25a1.75,1.75,0,0,0,0,3.5H4V.25Z"/></svg><svg viewBox="0 0 4 4" x="1224" y="776" width="64" height="64" shape-rendering="auto"><rect fill="#7c1516" y="0.25" width="4" height="3.5"/></svg><svg viewBox="0 0 4 4" x="1288" y="776" width="64" height="64" shape-rendering="auto"><path fill="#7c1516" d="M2,3.75A1.75,1.75,0,0,0,2,.25H0v3.5Z"/></svg><svg viewBox="0 0 4 4" x="1416" y="776" width="64" height="64" shape-rendering="auto"><path fill="#7c1516" d="M2,.25a1.75,1.75,0,0,0,0,3.5H4V.25Z"/></svg><svg viewBox="0 0 4 4" x="1480" y="776" width="64" height="64" shape-rendering="auto"><path fill="#7c1516" d="M2,3.75A1.75,1.75,0,0,0,2,.25H0v3.5Z"/></svg><svg viewBox="0 0 4 4" x="1736" y="776" width="64" height="64" shape-rendering="auto"><circle fill="#7c1516" cx="2" cy="2" r="1.75"/></svg><svg viewBox="0 0 4 4" x="200" y="840" width="64" height="64" shape-rendering="auto"><path fill="#7c1516" d="M2,.25a1.75,1.75,0,0,0,0,3.5H4V.25Z"/></svg><svg viewBox="0 0 4 4" x="264" y="840" width="64" height="64" shape-rendering="auto"><rect fill="#7c1516" y="0.25" width="4" height="3.5"/></svg><svg viewBox="0 0 4 4" x="328" y="840" width="64" height="64" shape-rendering="auto"><rect fill="#7c1516" y="0.25" width="4" height="3.5"/></svg><svg viewBox="0 0 4 4" x="392" y="840" width="64" height="64" shape-rendering="auto"><rect fill="#7c1516" y="0.25" width="4" height="3.5"/></svg><svg viewBox="0 0 4 4" x="456" y="840" width="64" height="64" shape-rendering="auto"><path fill="#7c1516" d="M2,3.75A1.75,1.75,0,0,0,2,.25H0v3.5Z"/></svg><svg viewBox="0 0 4 4" x="584" y="840" width="64" height="64" shape-rendering="auto"><path fill="#7c1516" d="M2,.25a1.75,1.75,0,0,0,0,3.5H4V.25Z"/></svg><svg viewBox="0 0 4 4" x="648" y="840" width="64" height="64" shape-rendering="auto"><path fill="#7c1516" d="M2,3.75A1.75,1.75,0,0,0,2,.25H0v3.5Z"/></svg><svg viewBox="0 0 4 4" x="776" y="840" width="64" height="64" shape-rendering="auto"><circle fill="#7c1516" cx="2" cy="2" r="1.75"/></svg><svg viewBox="0 0 4 4" x="904" y="840" width="64" height="64" shape-rendering="auto"><path fill="#7c1516" d="M2,.25a1.75,1.75,0,0,0,0,3.5H4V.25Z"/></svg><svg viewBox="0 0 4 4" x="968" y="840" width="64" height="64" shape-rendering="auto"><path fill="#7c1516" d="M2,3.75A1.75,1.75,0,0,0,2,.25H0v3.5Z"/></svg><svg viewBox="0 0 4 4" x="1096" y="840" width="64" height="64" shape-rendering="auto"><path fill="#7c1516" d="M2,.25a1.75,1.75,0,0,0,0,3.5H4V.25Z"/></svg><svg viewBox="0 0 4 4" x="1160" y="840" width="64" height="64" shape-rendering="auto"><path fill="#7c1516" d="M2,3.75A1.75,1.75,0,0,0,2,.25H0v3.5Z"/></svg><svg viewBox="0 0 4 4" x="1288" y="840" width="64" height="64" shape-rendering="auto"><path fill="#7c1516" d="M2,.25a1.75,1.75,0,0,0,0,3.5H4V.25Z"/></svg><svg viewBox="0 0 4 4" x="1352" y="840" width="64" height="64" shape-rendering="auto"><path fill="#7c1516" d="M2,3.75A1.75,1.75,0,0,0,2,.25H0v3.5Z"/></svg><svg viewBox="0 0 4 4" x="1480" y="840" width="64" height="64" shape-rendering="auto"><circle fill="#7c1516" cx="2" cy="2" r="1.75"/></svg><svg viewBox="0 0 4 4" x="1608" y="840" width="64" height="64" shape-rendering="auto"><circle fill="#7c1516" cx="2" cy="2" r="1.75"/></svg><svg viewBox="0 0 4 4" x="200" y="904" width="64" height="64" shape-rendering="auto"><path fill="#7c1516" d="M2,.25a1.75,1.75,0,0,0,0,3.5H4V.25Z"/></svg><svg viewBox="0 0 4 4" x="264" y="904" width="64" height="64" shape-rendering="auto"><path fill="#7c1516" d="M2,3.75A1.75,1.75,0,0,0,2,.25H0v3.5Z"/></svg><svg viewBox="0 0 4 4" x="520" y="904" width="64" height="64" shape-rendering="auto"><circle fill="#7c1516" cx="2" cy="2" r="1.75"/></svg><svg viewBox="0 0 4 4" x="776" y="904" width="64" height="64" shape-rendering="auto"><path fill="#7c1516" d="M2,.25a1.75,1.75,0,0,0,0,3.5H4V.25Z"/></svg><svg viewBox="0 0 4 4" x="840" y="904" width="64" height="64" shape-rendering="auto"><rect fill="#7c1516" y="0.25" width="4" height="3.5"/></svg><svg viewBox="0 0 4 4" x="904" y="904" width="64" height="64" shape-rendering="auto"><path fill="#7c1516" d="M2,3.75A1.75,1.75,0,0,0,2,.25H0v3.5Z"/></svg><svg viewBox="0 0 4 4" x="1096" y="904" width="64" height="64" shape-rendering="auto"><circle fill="#7c1516" cx="2" cy="2" r="1.75"/></svg><svg viewBox="0 0 4 4" x="1224" y="904" width="64" height="64" shape-rendering="auto"><path fill="#7c1516" d="M2,.25a1.75,1.75,0,0,0,0,3.5H4V.25Z"/></svg><svg viewBox="0 0 4 4" x="1288" y="904" width="64" height="64" shape-rendering="auto"><path fill="#7c1516" d="M2,3.75A1.75,1.75,0,0,0,2,.25H0v3.5Z"/></svg><svg viewBox="0 0 4 4" x="264" y="968" width="64" height="64" shape-rendering="auto"><path fill="#7c1516" d="M2,.25a1.75,1.75,0,0,0,0,3.5H4V.25Z"/></svg><svg viewBox="0 0 4 4" x="328" y="968" width="64" height="64" shape-rendering="auto"><path fill="#7c1516" d="M2,3.75A1.75,1.75,0,0,0,2,.25H0v3.5Z"/></svg><svg viewBox="0 0 4 4" x="456" y="968" width="64" height="64" shape-rendering="auto"><path fill="#7c1516" d="M2,.25a1.75,1.75,0,0,0,0,3.5H4V.25Z"/></svg><svg viewBox="0 0 4 4" x="520" y="968" width="64" height="64" shape-rendering="auto"><rect fill="#7c1516" y="0.25" width="4" height="3.5"/></svg><svg viewBox="0 0 4 4" x="584" y="968" width="64" height="64" shape-rendering="auto"><rect fill="#7c1516" y="0.25" width="4" height="3.5"/></svg><svg viewBox="0 0 4 4" x="648" y="968" width="64" height="64" shape-rendering="auto"><rect fill="#7c1516" y="0.25" width="4" height="3.5"/></svg><svg viewBox="0 0 4 4" x="712" y="968" width="64" height="64" shape-rendering="auto"><rect fill="#7c1516" y="0.25" width="4" height="3.5"/></svg><svg viewBox="0 0 4 4" x="776" y="968" width="64" height="64" shape-rendering="auto"><path fill="#7c1516" d="M2,3.75A1.75,1.75,0,0,0,2,.25H0v3.5Z"/></svg><svg viewBox="0 0 4 4" x="904" y="968" width="64" height="64" shape-rendering="auto"><circle fill="#7c1516" cx="2" cy="2" r="1.75"/></svg><svg viewBox="0 0 4 4" x="1160" y="968" width="64" height="64" shape-rendering="auto"><circle fill="#7c1516" cx="2" cy="2" r="1.75"/></svg><svg viewBox="0 0 4 4" x="1352" y="968" width="64" height="64" shape-rendering="auto"><path fill="#7c1516" d="M2,.25a1.75,1.75,0,0,0,0,3.5H4V.25Z"/></svg><svg viewBox="0 0 4 4" x="1416" y="968" width="64" height="64" shape-rendering="auto"><rect fill="#7c1516" y="0.25" width="4" height="3.5"/></svg><svg viewBox="0 0 4 4" x="1480" y="968" width="64" height="64" shape-rendering="auto"><rect fill="#7c1516" y="0.25" width="4" height="3.5"/></svg><svg viewBox="0 0 4 4" x="1544" y="968" width="64" height="64" shape-rendering="auto"><path fill="#7c1516" d="M2,3.75A1.75,1.75,0,0,0,2,.25H0v3.5Z"/></svg><svg viewBox="0 0 4 4" x="1672" y="968" width="64" height="64" shape-rendering="auto"><path fill="#7c1516" d="M2,.25a1.75,1.75,0,0,0,0,3.5H4V.25Z"/></svg><svg viewBox="0 0 4 4" x="1736" y="968" width="64" height="64" shape-rendering="auto"><path fill="#7c1516" d="M2,3.75A1.75,1.75,0,0,0,2,.25H0v3.5Z"/></svg><svg viewBox="0 0 4 4" x="200" y="1032" width="64" height="64" shape-rendering="auto"><path fill="#7c1516" d="M2,.25a1.75,1.75,0,0,0,0,3.5H4V.25Z"/></svg><svg viewBox="0 0 4 4" x="264" y="1032" width="64" height="64" shape-rendering="auto"><rect fill="#7c1516" y="0.25" width="4" height="3.5"/></svg><svg viewBox="0 0 4 4" x="328" y="1032" width="64" height="64" shape-rendering="auto"><rect fill="#7c1516" y="0.25" width="4" height="3.5"/></svg><svg viewBox="0 0 4 4" x="392" y="1032" width="64" height="64" shape-rendering="auto"><path fill="#7c1516" d="M2,3.75A1.75,1.75,0,0,0,2,.25H0v3.5Z"/></svg><svg viewBox="0 0 4 4" x="712" y="1032" width="64" height="64" shape-rendering="auto"><path fill="#7c1516" d="M2,.25a1.75,1.75,0,0,0,0,3.5H4V.25Z"/></svg><svg viewBox="0 0 4 4" x="776" y="1032" width="64" height="64" shape-rendering="auto"><rect fill="#7c1516" y="0.25" width="4" height="3.5"/></svg><svg viewBox="0 0 4 4" x="840" y="1032" width="64" height="64" shape-rendering="auto"><path fill="#7c1516" d="M2,3.75A1.75,1.75,0,0,0,2,.25H0v3.5Z"/></svg><svg viewBox="0 0 4 4" x="968" y="1032" width="64" height="64" shape-rendering="auto"><circle fill="#7c1516" cx="2" cy="2" r="1.75"/></svg><svg viewBox="0 0 4 4" x="1096" y="1032" width="64" height="64" shape-rendering="auto"><circle fill="#7c1516" cx="2" cy="2" r="1.75"/></svg><svg viewBox="0 0 4 4" x="1224" y="1032" width="64" height="64" shape-rendering="auto"><path fill="#7c1516" d="M2,.25a1.75,1.75,0,0,0,0,3.5H4V.25Z"/></svg><svg viewBox="0 0 4 4" x="1288" y="1032" width="64" height="64" shape-rendering="auto"><rect fill="#7c1516" y="0.25" width="4" height="3.5"/></svg><svg viewBox="0 0 4 4" x="1352" y="1032" width="64" height="64" shape-rendering="auto"><rect fill="#7c1516" y="0.25" width="4" height="3.5"/></svg><svg viewBox="0 0 4 4" x="1416" y="1032" width="64" height="64" shape-rendering="auto"><rect fill="#7c1516" y="0.25" width="4" height="3.5"/></svg><svg viewBox="0 0 4 4" x="1480" y="1032" width="64" height="64" shape-rendering="auto"><path fill="#7c1516" d="M2,3.75A1.75,1.75,0,0,0,2,.25H0v3.5Z"/></svg><svg viewBox="0 0 4 4" x="200" y="1096" width="64" height="64" shape-rendering="auto"><circle fill="#7c1516" cx="2" cy="2" r="1.75"/></svg><svg viewBox="0 0 4 4" x="456" y="1096" width="64" height="64" shape-rendering="auto"><path fill="#7c1516" d="M2,.25a1.75,1.75,0,0,0,0,3.5H4V.25Z"/></svg><svg viewBox="0 0 4 4" x="520" y="1096" width="64" height="64" shape-rendering="auto"><rect fill="#7c1516" y="0.25" width="4" height="3.5"/></svg><svg viewBox="0 0 4 4" x="584" y="1096" width="64" height="64" shape-rendering="auto"><rect fill="#7c1516" y="0.25" width="4" height="3.5"/></svg><svg viewBox="0 0 4 4" x="648" y="1096" width="64" height="64" shape-rendering="auto"><rect fill="#7c1516" y="0.25" width="4" height="3.5"/></svg><svg viewBox="0 0 4 4" x="712" y="1096" width="64" height="64" shape-rendering="auto"><path fill="#7c1516" d="M2,3.75A1.75,1.75,0,0,0,2,.25H0v3.5Z"/></svg><svg viewBox="0 0 4 4" x="840" y="1096" width="64" height="64" shape-rendering="auto"><circle fill="#7c1516" cx="2" cy="2" r="1.75"/></svg><svg viewBox="0 0 4 4" x="1032" y="1096" width="64" height="64" shape-rendering="auto"><path fill="#7c1516" d="M2,.25a1.75,1.75,0,0,0,0,3.5H4V.25Z"/></svg><svg viewBox="0 0 4 4" x="1096" y="1096" width="64" height="64" shape-rendering="auto"><path fill="#7c1516" d="M2,3.75A1.75,1.75,0,0,0,2,.25H0v3.5Z"/></svg><svg viewBox="0 0 4 4" x="1288" y="1096" width="64" height="64" shape-rendering="auto"><path fill="#7c1516" d="M2,.25a1.75,1.75,0,0,0,0,3.5H4V.25Z"/></svg><svg viewBox="0 0 4 4" x="1352" y="1096" width="64" height="64" shape-rendering="auto"><path fill="#7c1516" d="M2,3.75A1.75,1.75,0,0,0,2,.25H0v3.5Z"/></svg><svg viewBox="0 0 4 4" x="1480" y="1096" width="64" height="64" shape-rendering="auto"><circle fill="#7c1516" cx="2" cy="2" r="1.75"/></svg><svg viewBox="0 0 4 4" x="1608" y="1096" width="64" height="64" shape-rendering="auto"><path fill="#7c1516" d="M2,.25a1.75,1.75,0,0,0,0,3.5H4V.25Z"/></svg><svg viewBox="0 0 4 4" x="1672" y="1096" width="64" height="64" shape-rendering="auto"><rect fill="#7c1516" y="0.25" width="4" height="3.5"/></svg><svg viewBox="0 0 4 4" x="1736" y="1096" width="64" height="64" shape-rendering="auto"><path fill="#7c1516" d="M2,3.75A1.75,1.75,0,0,0,2,.25H0v3.5Z"/></svg><svg viewBox="0 0 4 4" x="200" y="1160" width="64" height="64" shape-rendering="auto"><circle fill="#7c1516" cx="2" cy="2" r="1.75"/></svg><svg viewBox="0 0 4 4" x="712" y="1160" width="64" height="64" shape-rendering="auto"><circle fill="#7c1516" cx="2" cy="2" r="1.75"/></svg><svg viewBox="0 0 4 4" x="840" y="1160" width="64" height="64" shape-rendering="auto"><circle fill="#7c1516" cx="2" cy="2" r="1.75"/></svg><svg viewBox="0 0 4 4" x="968" y="1160" width="64" height="64" shape-rendering="auto"><circle fill="#7c1516" cx="2" cy="2" r="1.75"/></svg><svg viewBox="0 0 4 4" x="1096" y="1160" width="64" height="64" shape-rendering="auto"><circle fill="#7c1516" cx="2" cy="2" r="1.75"/></svg><svg viewBox="0 0 4 4" x="1288" y="1160" width="64" height="64" shape-rendering="auto"><circle fill="#7c1516" cx="2" cy="2" r="1.75"/></svg><svg viewBox="0 0 4 4" x="1672" y="1160" width="64" height="64" shape-rendering="auto"><path fill="#7c1516" d="M2,.25a1.75,1.75,0,0,0,0,3.5H4V.25Z"/></svg><svg viewBox="0 0 4 4" x="1736" y="1160" width="64" height="64" shape-rendering="auto"><path fill="#7c1516" d="M2,3.75A1.75,1.75,0,0,0,2,.25H0v3.5Z"/></svg><svg viewBox="0 0 4 4" x="200" y="1224" width="64" height="64" shape-rendering="auto"><circle fill="#7c1516" cx="2" cy="2" r="1.75"/></svg><svg viewBox="0 0 4 4" x="328" y="1224" width="64" height="64" shape-rendering="auto"><circle fill="#7c1516" cx="2" cy="2" r="1.75"/></svg><svg viewBox="0 0 4 4" x="456" y="1224" width="64" height="64" shape-rendering="auto"><circle fill="#7c1516" cx="2" cy="2" r="1.75"/></svg><svg viewBox="0 0 4 4" x="584" y="1224" width="64" height="64" shape-rendering="auto"><path fill="#7c1516" d="M2,.25a1.75,1.75,0,0,0,0,3.5H4V.25Z"/></svg><svg viewBox="0 0 4 4" x="648" y="1224" width="64" height="64" shape-rendering="auto"><rect fill="#7c1516" y="0.25" width="4" height="3.5"/></svg><svg viewBox="0 0 4 4" x="712" y="1224" width="64" height="64" shape-rendering="auto"><path fill="#7c1516" d="M2,3.75A1.75,1.75,0,0,0,2,.25H0v3.5Z"/></svg><svg viewBox="0 0 4 4" x="968" y="1224" width="64" height="64" shape-rendering="auto"><path fill="#7c1516" d="M2,.25a1.75,1.75,0,0,0,0,3.5H4V.25Z"/></svg><svg viewBox="0 0 4 4" x="1032" y="1224" width="64" height="64" shape-rendering="auto"><rect fill="#7c1516" y="0.25" width="4" height="3.5"/></svg><svg viewBox="0 0 4 4" x="1096" y="1224" width="64" height="64" shape-rendering="auto"><rect fill="#7c1516" y="0.25" width="4" height="3.5"/></svg><svg viewBox="0 0 4 4" x="1160" y="1224" width="64" height="64" shape-rendering="auto"><rect fill="#7c1516" y="0.25" width="4" height="3.5"/></svg><svg viewBox="0 0 4 4" x="1224" y="1224" width="64" height="64" shape-rendering="auto"><rect fill="#7c1516" y="0.25" width="4" height="3.5"/></svg><svg viewBox="0 0 4 4" x="1288" y="1224" width="64" height="64" shape-rendering="auto"><rect fill="#7c1516" y="0.25" width="4" height="3.5"/></svg><svg viewBox="0 0 4 4" x="1352" y="1224" width="64" height="64" shape-rendering="auto"><rect fill="#7c1516" y="0.25" width="4" height="3.5"/></svg><svg viewBox="0 0 4 4" x="1416" y="1224" width="64" height="64" shape-rendering="auto"><rect fill="#7c1516" y="0.25" width="4" height="3.5"/></svg><svg viewBox="0 0 4 4" x="1480" y="1224" width="64" height="64" shape-rendering="auto"><rect fill="#7c1516" y="0.25" width="4" height="3.5"/></svg><svg viewBox="0 0 4 4" x="1544" y="1224" width="64" height="64" shape-rendering="auto"><path fill="#7c1516" d="M2,3.75A1.75,1.75,0,0,0,2,.25H0v3.5Z"/></svg><svg viewBox="0 0 4 4" x="1736" y="1224" width="64" height="64" shape-rendering="auto"><circle fill="#7c1516" cx="2" cy="2" r="1.75"/></svg><svg viewBox="0 0 4 4" x="712" y="1288" width="64" height="64" shape-rendering="auto"><path fill="#7c1516" d="M2,.25a1.75,1.75,0,0,0,0,3.5H4V.25Z"/></svg><svg viewBox="0 0 4 4" x="776" y="1288" width="64" height="64" shape-rendering="auto"><path fill="#7c1516" d="M2,3.75A1.75,1.75,0,0,0,2,.25H0v3.5Z"/></svg><svg viewBox="0 0 4 4" x="1096" y="1288" width="64" height="64" shape-rendering="auto"><circle fill="#7c1516" cx="2" cy="2" r="1.75"/></svg><svg viewBox="0 0 4 4" x="1224" y="1288" width="64" height="64" shape-rendering="auto"><circle fill="#7c1516" cx="2" cy="2" r="1.75"/></svg><svg viewBox="0 0 4 4" x="1480" y="1288" width="64" height="64" shape-rendering="auto"><circle fill="#7c1516" cx="2" cy="2" r="1.75"/></svg><svg viewBox="0 0 4 4" x="1736" y="1288" width="64" height="64" shape-rendering="auto"><circle fill="#7c1516" cx="2" cy="2" r="1.75"/></svg><svg viewBox="0 0 4 4" x="712" y="1352" width="64" height="64" shape-rendering="auto"><path fill="#7c1516" d="M2,.25a1.75,1.75,0,0,0,0,3.5H4V.25Z"/></svg><svg viewBox="0 0 4 4" x="776" y="1352" width="64" height="64" shape-rendering="auto"><path fill="#7c1516" d="M2,3.75A1.75,1.75,0,0,0,2,.25H0v3.5Z"/></svg><svg viewBox="0 0 4 4" x="904" y="1352" width="64" height="64" shape-rendering="auto"><path fill="#7c1516" d="M2,.25a1.75,1.75,0,0,0,0,3.5H4V.25Z"/></svg><svg viewBox="0 0 4 4" x="968" y="1352" width="64" height="64" shape-rendering="auto"><rect fill="#7c1516" y="0.25" width="4" height="3.5"/></svg><svg viewBox="0 0 4 4" x="1032" y="1352" width="64" height="64" shape-rendering="auto"><rect fill="#7c1516" y="0.25" width="4" height="3.5"/></svg><svg viewBox="0 0 4 4" x="1096" y="1352" width="64" height="64" shape-rendering="auto"><path fill="#7c1516" d="M2,3.75A1.75,1.75,0,0,0,2,.25H0v3.5Z"/></svg><svg viewBox="0 0 4 4" x="1224" y="1352" width="64" height="64" shape-rendering="auto"><circle fill="#7c1516" cx="2" cy="2" r="1.75"/></svg><svg viewBox="0 0 4 4" x="1352" y="1352" width="64" height="64" shape-rendering="auto"><circle fill="#7c1516" cx="2" cy="2" r="1.75"/></svg><svg viewBox="0 0 4 4" x="1480" y="1352" width="64" height="64" shape-rendering="auto"><circle fill="#7c1516" cx="2" cy="2" r="1.75"/></svg><svg viewBox="0 0 4 4" x="1608" y="1352" width="64" height="64" shape-rendering="auto"><path fill="#7c1516" d="M2,.25a1.75,1.75,0,0,0,0,3.5H4V.25Z"/></svg><svg viewBox="0 0 4 4" x="1672" y="1352" width="64" height="64" shape-rendering="auto"><rect fill="#7c1516" y="0.25" width="4" height="3.5"/></svg><svg viewBox="0 0 4 4" x="1736" y="1352" width="64" height="64" shape-rendering="auto"><path fill="#7c1516" d="M2,3.75A1.75,1.75,0,0,0,2,.25H0v3.5Z"/></svg><svg viewBox="0 0 4 4" x="776" y="1416" width="64" height="64" shape-rendering="auto"><circle fill="#7c1516" cx="2" cy="2" r="1.75"/></svg><svg viewBox="0 0 4 4" x="904" y="1416" width="64" height="64" shape-rendering="auto"><circle fill="#7c1516" cx="2" cy="2" r="1.75"/></svg><svg viewBox="0 0 4 4" x="1032" y="1416" width="64" height="64" shape-rendering="auto"><circle fill="#7c1516" cx="2" cy="2" r="1.75"/></svg><svg viewBox="0 0 4 4" x="1224" y="1416" width="64" height="64" shape-rendering="auto"><circle fill="#7c1516" cx="2" cy="2" r="1.75"/></svg><svg viewBox="0 0 4 4" x="1480" y="1416" width="64" height="64" shape-rendering="auto"><path fill="#7c1516" d="M2,.25a1.75,1.75,0,0,0,0,3.5H4V.25Z"/></svg><svg viewBox="0 0 4 4" x="1544" y="1416" width="64" height="64" shape-rendering="auto"><path fill="#7c1516" d="M2,3.75A1.75,1.75,0,0,0,2,.25H0v3.5Z"/></svg><svg viewBox="0 0 4 4" x="712" y="1480" width="64" height="64" shape-rendering="auto"><path fill="#7c1516" d="M2,.25a1.75,1.75,0,0,0,0,3.5H4V.25Z"/></svg><svg viewBox="0 0 4 4" x="776" y="1480" width="64" height="64" shape-rendering="auto"><path fill="#7c1516" d="M2,3.75A1.75,1.75,0,0,0,2,.25H0v3.5Z"/></svg><svg viewBox="0 0 4 4" x="904" y="1480" width="64" height="64" shape-rendering="auto"><path fill="#7c1516" d="M2,.25a1.75,1.75,0,0,0,0,3.5H4V.25Z"/></svg><svg viewBox="0 0 4 4" x="968" y="1480" width="64" height="64" shape-rendering="auto"><path fill="#7c1516" d="M2,3.75A1.75,1.75,0,0,0,2,.25H0v3.5Z"/></svg><svg viewBox="0 0 4 4" x="1096" y="1480" width="64" height="64" shape-rendering="auto"><circle fill="#7c1516" cx="2" cy="2" r="1.75"/></svg><svg viewBox="0 0 4 4" x="1224" y="1480" width="64" height="64" shape-rendering="auto"><path fill="#7c1516" d="M2,.25a1.75,1.75,0,0,0,0,3.5H4V.25Z"/></svg><svg viewBox="0 0 4 4" x="1288" y="1480" width="64" height="64" shape-rendering="auto"><rect fill="#7c1516" y="0.25" width="4" height="3.5"/></svg><svg viewBox="0 0 4 4" x="1352" y="1480" width="64" height="64" shape-rendering="auto"><rect fill="#7c1516" y="0.25" width="4" height="3.5"/></svg><svg viewBox="0 0 4 4" x="1416" y="1480" width="64" height="64" shape-rendering="auto"><rect fill="#7c1516" y="0.25" width="4" height="3.5"/></svg><svg viewBox="0 0 4 4" x="1480" y="1480" width="64" height="64" shape-rendering="auto"><rect fill="#7c1516" y="0.25" width="4" height="3.5"/></svg><svg viewBox="0 0 4 4" x="1544" y="1480" width="64" height="64" shape-rendering="auto"><path fill="#7c1516" d="M2,3.75A1.75,1.75,0,0,0,2,.25H0v3.5Z"/></svg><svg viewBox="0 0 4 4" x="712" y="1544" width="64" height="64" shape-rendering="auto"><path fill="#7c1516" d="M2,.25a1.75,1.75,0,0,0,0,3.5H4V.25Z"/></svg><svg viewBox="0 0 4 4" x="776" y="1544" width="64" height="64" shape-rendering="auto"><rect fill="#7c1516" y="0.25" width="4" height="3.5"/></svg><svg viewBox="0 0 4 4" x="840" y="1544" width="64" height="64" shape-rendering="auto"><path fill="#7c1516" d="M2,3.75A1.75,1.75,0,0,0,2,.25H0v3.5Z"/></svg><svg viewBox="0 0 4 4" x="968" y="1544" width="64" height="64" shape-rendering="auto"><circle fill="#7c1516" cx="2" cy="2" r="1.75"/></svg><svg viewBox="0 0 4 4" x="1160" y="1544" width="64" height="64" shape-rendering="auto"><path fill="#7c1516" d="M2,.25a1.75,1.75,0,0,0,0,3.5H4V.25Z"/></svg><svg viewBox="0 0 4 4" x="1224" y="1544" width="64" height="64" shape-rendering="auto"><path fill="#7c1516" d="M2,3.75A1.75,1.75,0,0,0,2,.25H0v3.5Z"/></svg><svg viewBox="0 0 4 4" x="1352" y="1544" width="64" height="64" shape-rendering="auto"><circle fill="#7c1516" cx="2" cy="2" r="1.75"/></svg><svg viewBox="0 0 4 4" x="1480" y="1544" width="64" height="64" shape-rendering="auto"><circle fill="#7c1516" cx="2" cy="2" r="1.75"/></svg><svg viewBox="0 0 4 4" x="1672" y="1544" width="64" height="64" shape-rendering="auto"><path fill="#7c1516" d="M2,.25a1.75,1.75,0,0,0,0,3.5H4V.25Z"/></svg><svg viewBox="0 0 4 4" x="1736" y="1544" width="64" height="64" shape-rendering="auto"><path fill="#7c1516" d="M2,3.75A1.75,1.75,0,0,0,2,.25H0v3.5Z"/></svg><svg viewBox="0 0 4 4" x="712" y="1608" width="64" height="64" shape-rendering="auto"><path fill="#7c1516" d="M2,.25a1.75,1.75,0,0,0,0,3.5H4V.25Z"/></svg><svg viewBox="0 0 4 4" x="776" y="1608" width="64" height="64" shape-rendering="auto"><path fill="#7c1516" d="M2,3.75A1.75,1.75,0,0,0,2,.25H0v3.5Z"/></svg><svg viewBox="0 0 4 4" x="968" y="1608" width="64" height="64" shape-rendering="auto"><path fill="#7c1516" d="M2,.25a1.75,1.75,0,0,0,0,3.5H4V.25Z"/></svg><svg viewBox="0 0 4 4" x="1032" y="1608" width="64" height="64" shape-rendering="auto"><rect fill="#7c1516" y="0.25" width="4" height="3.5"/></svg><svg viewBox="0 0 4 4" x="1096" y="1608" width="64" height="64" shape-rendering="auto"><path fill="#7c1516" d="M2,3.75A1.75,1.75,0,0,0,2,.25H0v3.5Z"/></svg><svg viewBox="0 0 4 4" x="1480" y="1608" width="64" height="64" shape-rendering="auto"><circle fill="#7c1516" cx="2" cy="2" r="1.75"/></svg><svg viewBox="0 0 4 4" x="1608" y="1608" width="64" height="64" shape-rendering="auto"><circle fill="#7c1516" cx="2" cy="2" r="1.75"/></svg><svg viewBox="0 0 4 4" x="1736" y="1608" width="64" height="64" shape-rendering="auto"><circle fill="#7c1516" cx="2" cy="2" r="1.75"/></svg><svg viewBox="0 0 4 4" x="712" y="1672" width="64" height="64" shape-rendering="auto"><circle fill="#7c1516" cx="2" cy="2" r="1.75"/></svg><svg viewBox="0 0 4 4" x="968" y="1672" width="64" height="64" shape-rendering="auto"><path fill="#7c1516" d="M2,.25a1.75,1.75,0,0,0,0,3.5H4V.25Z"/></svg><svg viewBox="0 0 4 4" x="1032" y="1672" width="64" height="64" shape-rendering="auto"><path fill="#7c1516" d="M2,3.75A1.75,1.75,0,0,0,2,.25H0v3.5Z"/></svg><svg viewBox="0 0 4 4" x="1224" y="1672" width="64" height="64" shape-rendering="auto"><path fill="#7c1516" d="M2,.25a1.75,1.75,0,0,0,0,3.5H4V.25Z"/></svg><svg viewBox="0 0 4 4" x="1288" y="1672" width="64" height="64" shape-rendering="auto"><rect fill="#7c1516" y="0.25" width="4" height="3.5"/></svg><svg viewBox="0 0 4 4" x="1352" y="1672" width="64" height="64" shape-rendering="auto"><rect fill="#7c1516" y="0.25" width="4" height="3.5"/></svg><svg viewBox="0 0 4 4" x="1416" y="1672" width="64" height="64" shape-rendering="auto"><rect fill="#7c1516" y="0.25" width="4" height="3.5"/></svg><svg viewBox="0 0 4 4" x="1480" y="1672" width="64" height="64" shape-rendering="auto"><rect fill="#7c1516" y="0.25" width="4" height="3.5"/></svg><svg viewBox="0 0 4 4" x="1544" y="1672" width="64" height="64" shape-rendering="auto"><path fill="#7c1516" d="M2,3.75A1.75,1.75,0,0,0,2,.25H0v3.5Z"/></svg><svg viewBox="0 0 4 4" x="1672" y="1672" width="64" height="64" shape-rendering="auto"><circle fill="#7c1516" cx="2" cy="2" r="1.75"/></svg><svg viewBox="0 0 4 4" x="712" y="1736" width="64" height="64" shape-rendering="auto"><circle fill="#7c1516" cx="2" cy="2" r="1.75"/></svg><svg viewBox="0 0 4 4" x="840" y="1736" width="64" height="64" shape-rendering="auto"><circle fill="#7c1516" cx="2" cy="2" r="1.75"/></svg><svg viewBox="0 0 4 4" x="968" y="1736" width="64" height="64" shape-rendering="auto"><path fill="#7c1516" d="M2,.25a1.75,1.75,0,0,0,0,3.5H4V.25Z"/></svg><svg viewBox="0 0 4 4" x="1032" y="1736" width="64" height="64" shape-rendering="auto"><rect fill="#7c1516" y="0.25" width="4" height="3.5"/></svg><svg viewBox="0 0 4 4" x="1096" y="1736" width="64" height="64" shape-rendering="auto"><rect fill="#7c1516" y="0.25" width="4" height="3.5"/></svg><svg viewBox="0 0 4 4" x="1160" y="1736" width="64" height="64" shape-rendering="auto"><path fill="#7c1516" d="M2,3.75A1.75,1.75,0,0,0,2,.25H0v3.5Z"/></svg><svg viewBox="0 0 4 4" x="1608" y="1736" width="64" height="64" shape-rendering="auto"><path fill="#7c1516" d="M2,.25a1.75,1.75,0,0,0,0,3.5H4V.25Z"/></svg><svg viewBox="0 0 4 4" x="1672" y="1736" width="64" height="64" shape-rendering="auto"><rect fill="#7c1516" y="0.25" width="4" height="3.5"/></svg><svg viewBox="0 0 4 4" x="1736" y="1736" width="64" height="64" shape-rendering="auto"><path fill="#7c1516" d="M2,3.75A1.75,1.75,0,0,0,2,.25H0v3.5Z"/></svg><svg version="1.1" id="Ebene_1" x="200" y="200" viewBox="0 0 700 700" style="enable-background:new 0 0 700 700;" xml:space="preserve" width="448" height="448" shape-rendering="auto">

<path fill="#000000" d="M21.2-0.1C9.5-0.1-0.1,9.5-0.1,21.2v78.8v100v100v100v100v100v78.8c0,11.7,9.5,21.3,21.3,21.3h657.6  c11.7,0,21.3-9.5,21.3-21.3V600V500V400V300V200v-100V21.2c0-11.7-9.5-21.3-21.3-21.3H21.2z M600,200v100v100v100v87.8  c0,6.8-5.5,12.2-12.2,12.2H112.2c-6.8,0-12.2-5.5-12.2-12.2V500V400V300V200v-87.8c0-6.8,5.5-12.2,12.2-12.2h475.6  c6.8,0,12.2,5.5,12.2,12.2V200z"/>
</svg>
<svg version="1.1" id="Ebene_1" x="200" y="200" viewBox="0 0 700 700" style="enable-background:new 0 0 700 700;" xml:space="preserve" width="448" height="448" shape-rendering="auto">

<path fill="#000000" d="M500,400V300v-78.8c0-11.7-9.5-21.3-21.3-21.3H221.2c-11.7,0-21.3,9.5-21.3,21.3V300v100v78.8    c0,11.7,9.5,21.3,21.3,21.3h257.5c11.7,0,21.3-9.5,21.3-21.3V400z"/>
</svg>
<svg version="1.1" id="Ebene_1" x="1352" y="200" viewBox="0 0 700 700" style="enable-background:new 0 0 700 700;" xml:space="preserve" width="448" height="448" shape-rendering="auto">

<path fill="#000000" d="M21.2-0.1C9.5-0.1-0.1,9.5-0.1,21.2v78.8v100v100v100v100v100v78.8c0,11.7,9.5,21.3,21.3,21.3h657.6  c11.7,0,21.3-9.5,21.3-21.3V600V500V400V300V200v-100V21.2c0-11.7-9.5-21.3-21.3-21.3H21.2z M600,200v100v100v100v87.8  c0,6.8-5.5,12.2-12.2,12.2H112.2c-6.8,0-12.2-5.5-12.2-12.2V500V400V300V200v-87.8c0-6.8,5.5-12.2,12.2-12.2h475.6  c6.8,0,12.2,5.5,12.2,12.2V200z"/>
</svg>
<svg version="1.1" id="Ebene_1" x="1352" y="200" viewBox="0 0 700 700" style="enable-background:new 0 0 700 700;" xml:space="preserve" width="448" height="448" shape-rendering="auto">

<path fill="#000000" d="M500,400V300v-78.8c0-11.7-9.5-21.3-21.3-21.3H221.2c-11.7,0-21.3,9.5-21.3,21.3V300v100v78.8    c0,11.7,9.5,21.3,21.3,21.3h257.5c11.7,0,21.3-9.5,21.3-21.3V400z"/>
</svg>
<svg version="1.1" id="Ebene_1" x="200" y="1352" viewBox="0 0 700 700" style="enable-background:new 0 0 700 700;" xml:space="preserve" width="448" height="448" shape-rendering="auto">

<path fill="#000000" d="M21.2-0.1C9.5-0.1-0.1,9.5-0.1,21.2v78.8v100v100v100v100v100v78.8c0,11.7,9.5,21.3,21.3,21.3h657.6  c11.7,0,21.3-9.5,21.3-21.3V600V500V400V300V200v-100V21.2c0-11.7-9.5-21.3-21.3-21.3H21.2z M600,200v100v100v100v87.8  c0,6.8-5.5,12.2-12.2,12.2H112.2c-6.8,0-12.2-5.5-12.2-12.2V500V400V300V200v-87.8c0-6.8,5.5-12.2,12.2-12.2h475.6  c6.8,0,12.2,5.5,12.2,12.2V200z"/>
</svg>
<svg version="1.1" id="Ebene_1" x="200" y="1352" viewBox="0 0 700 700" style="enable-background:new 0 0 700 700;" xml:space="preserve" width="448" height="448" shape-rendering="auto">

<path fill="#000000" d="M500,400V300v-78.8c0-11.7-9.5-21.3-21.3-21.3H221.2c-11.7,0-21.3,9.5-21.3,21.3V300v100v78.8    c0,11.7,9.5,21.3,21.3,21.3h257.5c11.7,0,21.3-9.5,21.3-21.3V400z"/>
</svg>
</svg>

<path id="FrameBody" class="frame-color" d="M13.7,346.6h251.7c7.6,0,13.7-6.2,13.7-13.7V13.7c0-7.6-6.2-13.7-13.7-13.7H13.8C6.2,0,0.1,6.2,0,13.7
	v319.2C0,340.5,6.2,346.6,13.7,346.6z M10.6,17.9c0-4.1,3.3-7.4,7.4-7.4h243.2c4.1,0,7.4,3.3,7.4,7.4v243.3c0,4.1-3.3,7.4-7.4,7.4
	H18c-4.1,0-7.4-3.3-7.4-7.4V17.9z"/>
<svg id="TextArea" x="10" y="275" width="260" height="70" viewBox="0 0 37.833984375 17.588541666667" preserveAspectRatio="xMidYMid meet">
<svg version="1.1" xmlns="http://www.w3.org/2000/svg"><path class="text-color" fill="#FFFFFF" d=" M8.8515625,13.19140625l-0.9453125-2.43310546875l-3.115234375,0l-0.9345703125,2.43310546875l-0.9990234375,0l3.06689453125-7.884765625l0.8916015625,0l3.0615234375,7.884765625l-1.02587890625,0z M7.61083984375,9.8828125l-0.880859375-2.37939453125l-0.3759765625-1.17626953125q-0.1611328125,0.64453125-0.33837890625,1.17626953125l-0.8916015625,2.37939453125l2.48681640625,0z M15.984375,7.6484375q0,1.203125-0.82177734375,1.844970703125t-2.31494140625,0.641845703125l-0.90234375,0l0,3.05615234375l-0.98828125,0l0-7.8525390625l2.07861328125,0q2.94873046875,0,2.94873046875,2.3095703125z M11.9453125,9.28662109375l0.78955078125,0q1.1708984375,0,1.697265625-0.378662109375t0.5263671875-1.216552734375q0-0.75732421875-0.48876953125-1.13330078125t-1.525390625-0.3759765625l-0.9990234375,0l0,3.1044921875z M24.46533203125,9.25439453125q0,1.88525390625-0.953369140625,2.96484375t-2.666748046875,1.07958984375q-1.73486328125,0-2.682861328125-1.060791015625t-0.947998046875-2.994384765625q0-1.91748046875,0.942626953125-2.972900390625t2.698974609375-1.055419921875q1.7080078125,0,2.65869140625,1.071533203125t0.95068359375,2.967529296875z M18.25634765625,9.25439453125q0,1.5576171875,0.66064453125,2.3740234375t1.92822265625,0.81640625q1.26220703125,0,1.91748046875-0.8056640625t0.6552734375-2.384765625q0-1.57373046875-0.64990234375-2.371337890625t-1.912109375-0.797607421875q-1.2783203125,0-1.93896484375,0.808349609375t-0.66064453125,2.360595703125z M28.40771484375,13.19140625l-2.8359375,0l0-0.5693359375l0.923828125-0.20947265625l0-6.2841796875l-0.923828125-0.22021484375l0-0.5693359375l2.8359375,0l0,0.5693359375l-0.923828125,0.22021484375l0,6.2841796875l0.923828125,0.20947265625l0,0.5693359375z M34.31591796875,13.19140625l-4.38818359375,0l0-7.8525390625l4.38818359375,0l0,0.8701171875l-3.39990234375,0l0,2.44921875l3.201171875,0l0,0.859375l-3.201171875,0l0,2.8037109375l3.39990234375,0l0,0.8701171875z "/></svg>
</svg>

</svg>
